# xmcd
#
# Track frame offsets:
# 150
# 11536
# 23381
# 35541
# 42739
# 53475
# 65890
# 80158
# 92383
# 105272
# 116355
# 128576
# 140055
# 151655
# 163514
# 174855
#
# Disc length: 2473 seconds
#
#
# Revision: 0
# Processed by: cddbd v1.5PL3 Copyright (c) Steve Scherf et al.
# Submitted via: FreeRIP 2.53 
#
DISCID=bb09a710
DTITLE=Stonewall Jackson - Grand Ole Opry Stars
DYEAR=1900
DGENRE=Country
TTITLE0=Waterloo
TTITLE1=A Broken Heart, A Wedding Band
TTITLE2=A Little Guy Named Joe
TTITLE3=A Manion On The Hill
TTITLE4=Big House On The Corner
TTITLE5=Blues Booze Means Lose
TTITLE6=Don't Be Angry
TTITLE7=I Washed My Hands In Muddy Water
TTITLE8=I'm Just An Old Chunk Of Coal
TTITLE9=Life To Go
TTITLE10=One Look At Heaven
TTITLE11=Read Between The Lines
TTITLE12=Sweetheart of the Town
TTITLE13=Take These Chains From My Heart
TTITLE14=Things To Talk About
TTITLE15=Life of A Poor Boy
EXTD=
EXTT0=
EXTT1=
EXTT2=
EXTT3=
EXTT4=
EXTT5=
EXTT6=
EXTT7=
EXTT8=
EXTT9=
EXTT10=
EXTT11=
EXTT12=
EXTT13=
EXTT14=
EXTT15=
PLAYORDER=
